<?xml version="1.0" encoding="iso-8859-1"?>
<!-- Uploaded to: SVG Repo, www.svgrepo.com, Generator: SVG Repo Mixer Tools -->
<svg height="800px" width="800px" version="1.1" id="Layer_1" xmlns="http://www.w3.org/2000/svg" xmlns:xlink="http://www.w3.org/1999/xlink" 
	 viewBox="0 0 511.672 511.672" xml:space="preserve">
<path style="fill:#F6BB42;" d="M255.849,0c-17.676,0-31.995,14.334-31.979,31.979c0,17.676,14.304,31.979,31.964,31.979
	c17.684,0,31.987-14.304,31.987-31.979C287.82,14.334,273.517,0,255.849,0z M255.849,42.645c-5.887,0-10.665-4.778-10.665-10.665
	c0-5.872,4.778-10.649,10.665-10.649c5.871,0,10.649,4.778,10.649,10.649C266.498,37.866,261.72,42.645,255.849,42.645z"/>
<path style="fill:#FFCE54;" d="M255.849,501.023c-59.805,0-116.02-23.298-158.305-65.567c-42.27-42.286-65.567-98.5-65.552-158.29
	c0-59.806,23.282-116.02,65.552-158.289c42.285-42.286,98.5-65.567,158.289-65.567c59.813,0,116.027,23.282,158.312,65.567
	c42.254,42.27,65.553,98.483,65.553,158.289c0,59.79-23.299,116.004-65.553,158.289C371.86,477.725,315.647,501.023,255.849,501.023
	z"/>
<g>
	<path style="fill:#F6BB42;" d="M245.184,85.289c0,5.887,4.778,10.649,10.665,10.649s10.649-4.763,10.649-10.649V53.091h-21.314
		L245.184,85.289L245.184,85.289z"/>
	<path style="fill:#F6BB42;" d="M255.849,458.378c-5.887,0-10.665,4.778-10.665,10.665v32.198h21.314v-32.198
		C266.498,463.156,261.735,458.378,255.849,458.378z"/>
	<path style="fill:#F6BB42;" d="M479.916,266.501h-32.198c-5.871,0-10.648,4.778-10.648,10.665s4.777,10.649,10.648,10.649l0,0
		h32.198V266.501z"/>
	<path style="fill:#F6BB42;" d="M63.956,266.501H31.758v21.314h32.214l0,0c5.887,0,10.649-4.763,10.649-10.649
		S69.858,266.501,63.956,266.501z"/>
</g>
<polygon style="fill:#ED5564;" points="383.415,149.591 195.544,216.861 316.146,337.471 "/>
<polygon style="fill:#5D9CEC;" points="195.544,216.861 128.275,404.74 316.146,337.471 "/>
<path style="fill:#434A54;" d="M270.917,292.25c-8.322,8.307-21.83,8.307-30.152,0c-8.323-8.338-8.323-21.83,0-30.168
	c8.322-8.323,21.83-8.323,30.152,0C279.233,270.42,279.233,283.912,270.917,292.25z"/>
<path style="fill:#F6BB42;" d="M255.849,42.645c-129.527,0-234.522,104.995-234.522,234.521
	c0,129.511,104.995,234.506,234.521,234.506c129.503,0,234.498-104.995,234.498-234.506
	C490.347,147.64,385.352,42.645,255.849,42.645z M406.589,427.913c-19.582,19.581-42.38,34.962-67.77,45.705
	c-26.265,11.103-54.184,16.739-82.986,16.739c-28.778,0-56.698-5.637-82.978-16.739c-25.375-10.743-48.188-26.124-67.769-45.705
	s-34.962-42.379-45.689-67.769c-11.118-26.265-16.755-54.185-16.755-82.979s5.637-56.714,16.755-82.979
	c10.728-25.39,26.108-48.188,45.689-67.769c19.581-19.597,42.395-34.978,67.769-45.705c26.28-11.103,54.2-16.755,82.978-16.755
	c28.803,0,56.722,5.652,82.986,16.755c25.39,10.728,48.188,26.108,67.77,45.705c19.58,19.581,34.977,42.379,45.721,67.769
	c11.086,26.265,16.738,54.185,16.738,82.979s-5.652,56.714-16.738,82.979C441.566,385.534,426.169,408.332,406.589,427.913z"/>
</svg>