<?xml version="1.0" encoding="iso-8859-1"?>
<!-- Uploaded to: SVG Repo, www.svgrepo.com, Generator: SVG Repo Mixer Tools -->
<svg height="800px" width="800px" version="1.1" id="Layer_1" xmlns="http://www.w3.org/2000/svg" xmlns:xlink="http://www.w3.org/1999/xlink" 
	 viewBox="0 0 511.671 511.671" xml:space="preserve">
<path style="fill:#A0D468;" d="M490.654,71.099l-85.867-14.303c-5.793-0.968-13.412-1.453-21.033-1.453
	c-7.619,0-15.24,0.484-21.018,1.453l-85.867,14.303c-5.793,0.968-13.413,1.468-21.033,1.468s-15.24-0.5-21.018-1.468l-85.867-14.303
	c-5.793-0.968-13.413-1.453-21.033-1.453s-15.24,0.484-21.018,1.453L21.033,71.099C9.462,73.036,0,84.216,0,95.927V437.06
	c0,10.555,7.667,18.113,17.629,18.113c1.108,0,2.249-0.094,3.404-0.281l85.867-14.334c5.777-0.969,13.397-1.438,21.018-1.438
	s15.24,0.469,21.033,1.438l85.867,14.334c5.777,0.969,13.397,1.436,21.018,1.436s15.24-0.467,21.033-1.436l85.867-14.334
	c5.777-0.969,13.398-1.438,21.018-1.438c7.621,0,15.24,0.469,21.033,1.438l85.867,14.334c1.156,0.188,2.279,0.281,3.404,0.281
	c9.963,0,17.613-7.559,17.613-18.113V95.927C511.672,84.216,502.209,73.036,490.654,71.099z"/>
<g>
	<path style="fill:#434A54;" d="M67.566,287.188l-7.198-20.059c0.64-0.248,16.208-5.809,41.864-12.335l5.262,20.683
		C82.916,281.723,67.707,287.125,67.566,287.188z"/>
	<path style="fill:#434A54;" d="M125.435,271.158l-4.669-20.799c25.203-5.668,50.499-9.9,75.155-12.539l2.28,21.189
		C174.341,261.57,149.857,265.662,125.435,271.158z M380.975,270.549c-24.203-5.543-48.641-9.604-72.672-12.023l2.154-21.22
		c24.891,2.53,50.219,6.715,75.296,12.461L380.975,270.549z M216.549,257.324l-1.624-21.252c13.897-1.046,27.639-1.577,40.911-1.577
		c11.633,0,23.609,0.406,35.571,1.218l-1.437,21.268c-11.492-0.781-22.97-1.156-34.135-1.156
		C243.11,255.825,229.884,256.324,216.549,257.324z"/>
</g>
<path style="fill:#ED5564;" d="M465.92,290.936l-13.787-13.805l13.787-13.779c1.921-1.922,3.123-4.592,3.123-7.527
	c0-5.902-4.777-10.665-10.664-10.665c-2.951,0-5.606,1.202-7.543,3.123l-13.771,13.788l-13.789-13.788
	c-1.92-1.921-4.59-3.123-7.541-3.123c-5.888,0-10.65,4.763-10.65,10.665c0,2.935,1.188,5.605,3.123,7.527l13.772,13.779
	l-13.773,13.805c-1.936,1.904-3.123,4.59-3.123,7.525c0,5.871,4.763,10.65,10.65,10.65c2.951,0,5.621-1.188,7.541-3.123
	l13.789-13.773l13.772,13.773c1.937,1.936,4.592,3.123,7.543,3.123c5.887,0,10.664-4.779,10.664-10.65
	C469.043,295.525,467.841,292.84,465.92,290.936z"/>
<path style="opacity:0.1;enable-background:new    ;" d="M106.9,56.796L21.033,71.099C9.462,73.036,0,84.216,0,95.927V437.06
	c0,10.555,7.667,18.113,17.629,18.113c1.108,0,2.249-0.094,3.404-0.281l85.867-14.334c5.777-0.969,13.397-1.438,21.018-1.438V55.343
	C120.298,55.343,112.678,55.828,106.9,56.796z"/>
<path style="opacity:0.1;enable-background:new    ;" d="M362.736,56.796l-85.867,14.303c-5.793,0.968-13.413,1.468-21.033,1.468
	v383.761c7.62,0,15.24-0.467,21.033-1.436l85.867-14.334c5.777-0.969,13.398-1.438,21.018-1.438V55.343
	C376.135,55.343,368.514,55.828,362.736,56.796z"/>
</svg>